<?xml version="1.0" encoding="UTF-8"?><svg id="a" xmlns="http://www.w3.org/2000/svg" viewBox="0 0 1366 768"><defs><style>.b,.c{fill:#2f80ed;}.d{letter-spacing:-.02em;}.c{font-family:ArialRoundedMTBold, Arial Rounded MT Bold;font-size:250px;}</style></defs><path class="b" d="M99.89,320.13c-18.91,18.58-31.39,45.56-33.04,75.92-6.05,1.59-12.19,4.09-18.13,7.52-6.8,3.92-12.67,8.67-17.42,13.87-6.12-15.01-4.71-36.72,5.19-57.63,14.86-31.36,43.2-49.08,63.4-39.68Z"/><path class="b" d="M290.11,417.44c-4.75-5.2-10.62-9.95-17.42-13.87-5.42-3.13-10.99-5.48-16.51-7.08-1.58-30.8-14.29-58.17-33.57-76.84,20.12-8.28,47.72,9.36,62.31,40.16,9.9,20.91,11.31,42.62,5.19,57.63Z"/><path class="b" d="M130.6,506.08c-14.66,7.62-36.15,12.42-60.1,12.42-5.1,0-10.08-.22-14.91-.63,1.63-13,6.48-27.41,14.54-41.37,3.31-5.74,6.97-11.06,10.85-15.87,11.41,21.02,28.89,37.25,49.62,45.45Z"/><path class="b" d="M268.27,517.81c-4.83,.41-9.81,.63-14.91,.63-24.12,0-45.75-4.87-60.41-12.58-1.06-.55-2.07-1.12-3.05-1.7,7.87-1.46,15.7-4.63,22.87-9.45,4.65-3.1,9.02-6.9,12.96-11.36,.53-.6,1.05-1.21,1.56-1.83,5.79-6.41,10.87-13.65,15.09-21.56,4.07,4.97,7.9,10.49,11.35,16.48,8.06,13.96,12.91,28.37,14.54,41.37Z"/><path class="b" d="M201.91,304.37c-12.26-6.65-25.96-10.37-40.41-10.37s-27.31,3.49-39.28,9.76c7.06-31.79,22.22-53.76,39.78-53.76s32.92,22.27,39.91,54.37Z"/><text class="c" transform="translate(304.39 493)"><tspan x="0" y="0">ELB</tspan><tspan class="d" x="497.56" y="0">R</tspan><tspan x="671.14" y="0">US</tspan></text><path class="b" d="M212.77,494.71c-6.15,4.56-12.8,8.32-19.82,11.15-1.06-.55-2.07-1.12-3.05-1.7,7.87-1.46,15.7-4.63,22.87-9.45Z"/><ellipse class="b" cx="161.5" cy="403" rx="90.5" ry="104"/></svg>